<?xml version="1.0" encoding="UTF-8"?>
<!DOCTYPE svg PUBLIC "-//W3C//DTD SVG 1.0//EN" "http://www.w3.org/TR/2001/REC-SVG-20010904/DTD/svg10.dtd">
<!-- Creator: CorelDRAW -->
<svg xmlns="http://www.w3.org/2000/svg" xml:space="preserve" width="114.286mm" height="80mm" version="1.0" style="shape-rendering:geometricPrecision; text-rendering:geometricPrecision; image-rendering:optimizeQuality; fill-rule:evenodd; clip-rule:evenodd"
viewBox="0 0 7537.77 5276.42"
 xmlns:xlink="http://www.w3.org/1999/xlink"
 xmlns:xodm="http://www.corel.com/coreldraw/odm/2003">
 <defs>
  <style type="text/css">
   <![CDATA[
    .fil0 {fill:#F7C439}
   ]]>
  </style>
 </defs>
 <g id="Camada_x0020_1">
  <metadata id="CorelCorpID_0Corel-Layer"/>
  <path class="fil0" d="M1507.55 753.77l753.78 0 0 753.77 -753.78 0 0 -753.77zm1507.55 3768.88l0 753.78 4522.66 0 0 -753.78 -753.78 0 0 -753.78 -3015.11 0 0 -753.78 2261.33 0 0 -753.78 -753.78 0 0 -753.78 -753.78 0 0 -753.77 -753.78 0 0 -753.77 -2261.33 0 0 753.77 -753.78 0 0 753.77 -753.78 0 0 753.78 753.78 0 0 753.78 753.78 0 0 753.78 753.78 0 0 753.78 753.78 0zm753.78 -753.78l0 753.78 -753.78 0 0 -753.78 753.78 0zm-1507.55 -2261.33l753.78 0 0 753.78 -753.78 0 0 -753.78zm753.78 753.78l753.78 0 0 753.78 -753.78 0 0 -753.78z"/>
 </g>
</svg>
