<?xml version="1.0" encoding="UTF-8"?>
<!DOCTYPE svg PUBLIC "-//W3C//DTD SVG 1.0//EN" "http://www.w3.org/TR/2001/REC-SVG-20010904/DTD/svg10.dtd">
<!-- Creator: CorelDRAW -->
<svg xmlns="http://www.w3.org/2000/svg" xml:space="preserve" width="80mm" height="80mm" version="1.0" style="shape-rendering:geometricPrecision; text-rendering:geometricPrecision; image-rendering:optimizeQuality; fill-rule:evenodd; clip-rule:evenodd"
viewBox="0 0 914.22 914.22"
 xmlns:xlink="http://www.w3.org/1999/xlink"
 xmlns:xodm="http://www.corel.com/coreldraw/odm/2003">
 <defs>
  <style type="text/css">
   <![CDATA[
    .fil0 {fill:red}
   ]]>
  </style>
 </defs>
 <g id="Camada_x0020_1">
  <metadata id="CorelCorpID_0Corel-Layer"/>
  <polygon class="fil0" points="653.01,653.01 783.62,653.01 783.62,522.41 914.22,522.41 914.22,130.6 783.62,130.6 783.62,0 587.12,0 587.12,93.03 522.41,93.03 522.41,93.07 522.41,179.3 391.81,179.3 391.81,93.07 391.81,93.03 327.1,93.03 327.1,0 130.6,0 130.6,130.6 -0,130.6 -0,522.41 130.6,522.41 130.6,653.01 261.21,653.01 261.21,783.62 391.81,783.62 391.81,914.22 522.41,914.22 522.41,783.62 653.01,783.62 "/>
 </g>
</svg>
