<?xml version="1.0" encoding="UTF-8"?>
<!DOCTYPE svg PUBLIC "-//W3C//DTD SVG 1.0//EN" "http://www.w3.org/TR/2001/REC-SVG-20010904/DTD/svg10.dtd">
<!-- Creator: CorelDRAW -->
<svg xmlns="http://www.w3.org/2000/svg" xml:space="preserve" width="63.9999mm" height="80mm" version="1.0" style="shape-rendering:geometricPrecision; text-rendering:geometricPrecision; image-rendering:optimizeQuality; fill-rule:evenodd; clip-rule:evenodd"
viewBox="0 0 520.38 650.47"
 xmlns:xlink="http://www.w3.org/1999/xlink"
 xmlns:xodm="http://www.corel.com/coreldraw/odm/2003">
 <defs>
  <style type="text/css">
   <![CDATA[
    .fil0 {fill:#00CC00}
   ]]>
  </style>
 </defs>
 <g id="Camada_x0020_1">
  <metadata id="CorelCorpID_0Corel-Layer"/>
  <path class="fil0" d="M130.09 455.33l65.05 0 0 65.05 -65.05 0 0 -65.05zm260.19 65.05l65.05 0 0 -65.05 65.05 0 0 -130.09 -65.05 0 0 -65.05 -65.05 0 0 -65.05 -65.05 0 0 65.05 65.05 0 0 65.05 -260.19 0 0 -65.05 65.05 0 0 -65.05 -65.05 0 0 65.05 -65.05 0 0 65.05 -65.05 0 0 130.09 65.05 0 0 65.05 65.05 0 0 65.05 65.05 0 0 65.05 130.09 0 0 -65.05 65.05 0 0 -65.05zm65.05 -65.05l-65.05 0 0 -130.09 65.05 0 0 130.09zm-65.05 0l0 65.05 -65.05 0 0 -65.05 65.05 0zm-65.05 65.05l0 65.05 -130.09 0 0 -65.05 130.09 0zm-260.19 -65.05l0 -130.09 65.05 0 0 130.09 -65.05 0zm65.05 -325.24l260.19 0 0 -65.05 -65.05 0 0 -65.05 -130.09 0 0 65.05 -65.05 0 0 65.05z"/>
 </g>
</svg>
