<?xml version="1.0" encoding="UTF-8"?>
<!DOCTYPE svg PUBLIC "-//W3C//DTD SVG 1.0//EN" "http://www.w3.org/TR/2001/REC-SVG-20010904/DTD/svg10.dtd">
<!-- Creator: CorelDRAW -->
<svg xmlns="http://www.w3.org/2000/svg" xml:space="preserve" width="71.1112mm" height="80mm" version="1.0" style="shape-rendering:geometricPrecision; text-rendering:geometricPrecision; image-rendering:optimizeQuality; fill-rule:evenodd; clip-rule:evenodd"
viewBox="0 0 1511.06 1699.94"
 xmlns:xlink="http://www.w3.org/1999/xlink"
 xmlns:xodm="http://www.corel.com/coreldraw/odm/2003">
 <defs>
  <style type="text/css">
   <![CDATA[
    .fil0 {fill:#B3B3B3}
   ]]>
  </style>
 </defs>
 <g id="Camada_x0020_1">
  <metadata id="CorelCorpID_0Corel-Layer"/>
  <path class="fil0" d="M188.88 1322.17l0 -1133.29 1133.29 0 0 1133.29 -188.88 0 0 188.88 -755.53 0 0 -188.88 -188.88 0zm1133.29 0l188.88 0 0 -1322.17 -1511.05 0 0 1322.17 188.88 0 0 188.88 188.88 0 0 188.88 755.53 0 0 -188.88 188.88 0 0 -188.88zm-944.41 -188.88l188.88 0 0 188.88 377.76 0 0 -188.88 188.88 0 0 -755.53 -755.53 0 0 755.53z"/>
 </g>
</svg>
