<?xml version="1.0" encoding="UTF-8"?>
<!DOCTYPE svg PUBLIC "-//W3C//DTD SVG 1.0//EN" "http://www.w3.org/TR/2001/REC-SVG-20010904/DTD/svg10.dtd">
<!-- Creator: CorelDRAW -->
<svg xmlns="http://www.w3.org/2000/svg" xml:space="preserve" width="80.2959mm" height="80mm" version="1.0" style="shape-rendering:geometricPrecision; text-rendering:geometricPrecision; image-rendering:optimizeQuality; fill-rule:evenodd; clip-rule:evenodd"
viewBox="0 0 1228.1 1223.58"
 xmlns:xlink="http://www.w3.org/1999/xlink"
 xmlns:xodm="http://www.corel.com/coreldraw/odm/2003">
 <defs>
  <style type="text/css">
   <![CDATA[
    .fil0 {fill:white}
   ]]>
  </style>
 </defs>
 <g id="Camada_x0020_1">
  <metadata id="CorelCorpID_0Corel-Layer"/>
  <path class="fil0" d="M276.44 951.67l135.95 0 -2.26 135.95 274.17 0 0 -135.96 -135.95 0 -0 -135.95 135.96 0 -0.01 -135.96 135.96 0 -0 -135.96 135.96 0 -0 -135.95 135.95 0 -0 -135.96 135.95 0 -0 -271.91 -271.91 0 0 135.96 -135.96 -0 0 135.95 -135.95 -0 0 135.96 -135.96 -0 0 135.96 -135.96 -0 0 135.96 -135.95 -0 -0 -135.95 -131.42 0 -4.53 0 2.27 271.91 133.68 0 0 135.95 -135.96 -0 0 135.96 -135.96 -0 -4.53 135.96 140.49 0 -0 -135.95 135.96 0 -0 -135.96zm407.85 -271.9l-135.95 0 0 -135.95 135.95 0 0 135.95zm0 -135.95l0 -135.95 135.95 0 0 135.95 -135.95 0zm-135.95 135.95l0 135.95 -135.95 -0 -0 -135.95 135.95 0zm407.86 -271.9l-135.95 0 0 -135.95 135.95 0 0 135.95zm135.95 -135.95l-135.95 0 0 -135.95 135.95 0 0 135.95z"/>
 </g>
</svg>
